<svg width="40" height="40" viewBox="0 0 40 40" fill="none" xmlns="http://www.w3.org/2000/svg">
<path d="M20 0C8.96 0 0 8.96 0 20C0 31.04 8.96 40 20 40C31.04 40 40 31.04 40 20C40 8.96 31.04 0 20 0ZM30.38 27.88C30.3 28.06 30.2 28.22 30.06 28.36L26.68 31.74C26.38 32.04 26 32.18 25.62 32.18C25.24 32.18 24.86 32.04 24.56 31.74C23.98 31.16 23.98 30.2 24.56 29.62L25.38 28.8H14.2C11.6 28.8 9.5 26.68 9.5 24.1V20.56C9.5 19.74 10.18 19.06 11 19.06C11.82 19.06 12.5 19.74 12.5 20.56V24.1C12.5 25.04 13.26 25.8 14.2 25.8H25.38L24.56 24.98C23.98 24.4 23.98 23.44 24.56 22.86C25.14 22.28 26.1 22.28 26.68 22.86L30.06 26.24C30.2 26.38 30.3 26.54 30.38 26.72C30.54 27.1 30.54 27.52 30.38 27.88ZM30.5 19.44C30.5 20.26 29.82 20.94 29 20.94C28.18 20.94 27.5 20.26 27.5 19.44V15.9C27.5 14.96 26.74 14.2 25.8 14.2H14.62L15.44 15C16.02 15.58 16.02 16.54 15.44 17.12C15.14 17.42 14.76 17.56 14.38 17.56C14 17.56 13.62 17.42 13.32 17.12L9.94 13.74C9.8 13.6 9.7 13.44 9.62 13.26C9.46 12.9 9.46 12.48 9.62 12.12C9.7 11.94 9.8 11.76 9.94 11.62L13.32 8.24C13.9 7.66 14.86 7.66 15.44 8.24C16.02 8.82 16.02 9.78 15.44 10.36L14.62 11.18H25.8C28.4 11.18 30.5 13.3 30.5 15.88V19.44Z" fill="white"/>
</svg>
